<?xml version="1.0" standalone="no"?>
<!DOCTYPE svg PUBLIC "-//W3C//DTD SVG 20010904//EN"
 "http://www.w3.org/TR/2001/REC-SVG-20010904/DTD/svg10.dtd">
<svg version="1.0" xmlns="http://www.w3.org/2000/svg"
 width="260.000000pt" height="260.000000pt" viewBox="0 0 260.000000 260.000000"
 preserveAspectRatio="xMidYMid meet">
<metadata>
Created by potrace 1.11, written by Peter Selinger 2001-2013
</metadata>
<g transform="translate(0.000000,260.000000) scale(0.100000,-0.100000)"
fill="#000000" stroke="none">
<path d="M1180 2029 c-71 -13 -87 -17 -107 -27 -10 -6 -21 -9 -24 -9 -6 2
-111 -45 -119 -53 -3 -3 -25 -18 -50 -34 -97 -63 -195 -180 -250 -299 -73
-157 -86 -305 -45 -507 8 -41 45 -121 103 -226 17 -30 138 -153 182 -185 199
-142 470 -176 704 -89 110 42 230 129 303 220 24 30 47 60 52 66 32 39 86 172
108 264 9 35 9 226 1 280 -6 40 -26 106 -45 150 -3 8 -7 17 -8 20 -29 84 -168
254 -242 296 -18 10 -33 21 -33 24 0 5 -113 60 -165 81 -79 30 -271 45 -365
28z"/>
</g>
</svg>
